<svg width="43" height="43" viewBox="0 0 43 43" fill="none" xmlns="http://www.w3.org/2000/svg">
<rect width="42.5" height="42.5" rx="13.4921" fill="white"/>
<path d="M12.5625 23.8436C12.5625 20.106 14.4313 16.206 16.625 16.206C17.8438 16.206 18.8188 16.9373 20.3625 19.131C18.9 21.406 18.0063 22.7873 18.0063 22.7873C16.0563 25.8748 15.4063 26.5248 14.35 26.5248C13.2938 26.6061 12.5625 25.6311 12.5625 23.8436ZM25.3188 22.4623L23.9376 20.1873C23.6126 19.6185 23.2063 19.0498 22.8813 18.5623C24.1001 16.6935 25.0751 15.7185 26.2938 15.7185C28.7313 15.7185 30.6813 19.3748 30.6813 23.9248C30.6813 25.6311 30.1126 26.6061 28.9751 26.6061C27.8376 26.6061 27.4313 25.8748 25.3188 22.4623ZM21.8251 16.9373C20.0375 14.581 18.4938 13.6873 16.7063 13.6873C12.9688 13.6873 10.125 18.6435 10.125 23.8436C10.125 27.0936 11.6688 29.1248 14.2688 29.1248C16.1375 29.1248 17.4375 28.2311 19.875 24.0061C19.875 24.0061 20.85 22.2185 21.5813 20.9998C21.8251 21.406 22.0688 21.8123 22.3126 22.2998L23.4501 24.2498C25.6438 27.9873 26.8626 29.2061 29.0563 29.2061C31.5751 29.2061 32.9564 27.0936 32.9564 23.7623C32.8751 18.2373 29.9501 13.6873 26.4563 13.6873C24.5876 13.6873 23.1251 15.1498 21.8251 16.9373Z" fill="black"/>
</svg>
