<svg width="148" height="66" viewBox="0 0 148 66" fill="none" xmlns="http://www.w3.org/2000/svg">
<g clip-path="url(#clip0_13_805)">
<path d="M35.1728 29.7039V29.5581C35.1728 27.6632 34.5897 26.0598 33.4236 24.9666C32.1118 23.7276 30.1441 23.0717 27.8118 23.0717H20.0138V42.8222H24.4596V36.4088H27.0104L30.8 42.8222H35.8287L31.4559 35.5342C33.1321 34.7326 35.1728 33.1293 35.1728 29.7039ZM30.727 29.7767C30.727 31.5987 29.488 32.6919 27.4474 32.6919H24.4593V26.9343H27.4474C29.5609 26.9343 30.727 27.8818 30.727 29.7767ZM97.6316 22.999L90.1976 42.8224H94.6434L96.174 38.5953H103.097L104.628 42.8224H109.219L101.786 22.999H97.6316ZM101.713 34.8784H97.4859L99.5994 28.8295L101.713 34.8784ZM122.119 32.7649L128.022 23.1447H123.14L119.641 29.4123L116.216 23.1447H111.114L116.945 32.8379L110.823 42.8952H115.706L119.423 36.2631L123.14 42.8952H128.169L122.119 32.7649ZM44.282 39.0325V34.8054H52.226V31.0158H44.282V26.9344H53.2463V23.0717H39.9091V42.8222H48.2174L50.258 39.0325H44.282ZM82.1787 23.0717L77.7329 29.4851L73.2144 23.0717H73.1414L68.6229 31.6716V42.8222H72.9227V30.5783L77.5869 36.6273V36.7002H77.8056L82.5429 30.5782V42.8221H86.8427V23.0716L82.1787 23.0717Z" fill="#6E6E70"/>
<path d="M63.1677 23.0695L52.746 42.8198H58.139L68.5607 23.0695H63.1677Z" fill="#6E6E70"/>
</g>
<defs>
<clipPath id="clip0_13_805">
<rect width="108.154" height="19.8963" fill="white" transform="translate(20 23)"/>
</clipPath>
</defs>
</svg>
