<svg width="295" height="191" viewBox="0 0 295 191" fill="none" xmlns="http://www.w3.org/2000/svg">
<path d="M146.791 19.0879C146.791 20.5861 145.963 21.9615 144.639 22.6625L123.209 34.0075C119.677 35.8776 115.298 34.4493 113.547 30.8561L105.844 15.0434H142.746C144.98 15.0434 146.791 16.8542 146.791 19.0879Z" fill="black"/>
<path fill-rule="evenodd" clip-rule="evenodd" d="M284.318 0.632123C290.378 -2.05419 296.47 4.32694 293.505 10.2556L205.379 186.509C202.804 191.658 195.482 191.734 192.801 186.64L142.98 91.9802C141.424 89.0242 138.012 87.5607 134.798 88.4715L0 126.672L284.318 0.632123ZM205.371 117.216C202.935 122.707 195.194 122.85 192.557 117.452L177.841 87.3171C176.029 83.6067 177.769 79.1396 181.614 77.6334L215.603 64.3181C221.484 62.0142 227.204 67.9922 224.643 73.7659L205.371 117.216Z" fill="black"/>
</svg>
