<svg width="148" height="66" viewBox="0 0 148 66" fill="none" xmlns="http://www.w3.org/2000/svg">
<g filter="url(#filter0_i_13_793)">
<path d="M51.1236 20.2879C51.1236 20.5273 50.9914 20.747 50.7799 20.859L47.3565 22.6713C46.7923 22.97 46.0928 22.7418 45.8131 22.1678L44.5826 19.6418H50.4775C50.8343 19.6418 51.1236 19.9311 51.1236 20.2879Z" fill="#6E6E70"/>
<path fill-rule="evenodd" clip-rule="evenodd" d="M73.093 17.3397C74.0611 16.9106 75.0342 17.93 74.5606 18.8771L60.4829 47.0325C60.0716 47.8551 58.902 47.8672 58.4737 47.0535L50.5151 31.9321C50.2665 31.4599 49.7214 31.2261 49.208 31.3716L27.6748 37.4739L73.093 17.3397ZM60.4817 35.9634C60.0925 36.8405 58.856 36.8634 58.4347 36.0011L56.0839 31.1872C55.7945 30.5945 56.0724 29.8809 56.6866 29.6403L62.1162 27.5132C63.0556 27.1452 63.9694 28.1001 63.5603 29.0225L60.4817 35.9634Z" fill="#6E6E70"/>
</g>
<path d="M78.5972 22.7487C78.0806 22.7487 77.6378 22.5642 77.2688 22.1952C76.9244 21.8261 76.7522 21.3587 76.7522 20.7929C76.7522 20.2271 76.9244 19.772 77.2688 19.4276C77.6378 19.0586 78.0806 18.8741 78.5972 18.8741C79.1138 18.8741 79.5444 19.0586 79.8888 19.4276C80.2332 19.772 80.4054 20.2271 80.4054 20.7929C80.4054 21.3587 80.2332 21.8261 79.8888 22.1952C79.5444 22.5642 79.1138 22.7487 78.5972 22.7487ZM75.4975 45.0735C75.1285 45.0735 74.944 44.9382 74.944 44.6676C74.944 44.4462 75.1039 44.2986 75.4237 44.2248L75.8666 44.151C76.4816 44.0526 76.8752 43.905 77.0474 43.7081C77.2196 43.4867 77.3057 43.1177 77.3057 42.6011V30.2026C77.3057 29.7598 77.2319 29.4645 77.0843 29.3169C76.9613 29.1448 76.7276 29.0341 76.3832 28.9849L75.6082 28.8742C75.2884 28.8495 75.1285 28.7142 75.1285 28.4682C75.1285 28.2714 75.3253 28.1361 75.7189 28.0623C76.4816 27.9393 77.0966 27.7425 77.564 27.4719C78.0314 27.2013 78.4865 26.8692 78.9293 26.4756C79.1507 26.2542 79.3352 26.1435 79.4828 26.1435C79.7043 26.1435 79.815 26.2911 79.815 26.5863V42.6011C79.815 43.1177 79.8888 43.4867 80.0364 43.7081C80.184 43.9296 80.4669 44.0649 80.8851 44.1141L81.8076 44.2248C82.0782 44.274 82.2135 44.4093 82.2135 44.6307C82.2135 44.9259 82.029 45.0735 81.66 45.0735H75.4975ZM90.2082 45.4056C89.1996 45.4056 88.2279 45.0858 87.2931 44.4462C86.7519 44.0772 86.2598 44.1756 85.817 44.7414C85.571 45.012 85.3865 45.1842 85.2635 45.258C85.1405 45.3564 85.0175 45.4056 84.8945 45.4056C84.6239 45.4056 84.5255 45.2334 84.5993 44.889C84.6977 44.3232 84.7715 43.5974 84.8207 42.7118C84.8699 41.8262 84.8945 40.6454 84.8945 39.1693V21.4571C84.8945 21.0143 84.8207 20.7191 84.6731 20.5715C84.5501 20.3993 84.3164 20.2886 83.972 20.2394L83.1971 20.1287C82.9265 20.0795 82.7912 19.9319 82.7912 19.6859C82.7912 19.4399 82.9265 19.2923 83.1971 19.2431C83.8859 19.0955 84.464 18.9233 84.9314 18.7265C85.3988 18.5297 85.7924 18.3329 86.1122 18.1361C86.5059 17.8901 86.8011 17.7671 86.9979 17.7671C87.2685 17.7671 87.4038 17.9639 87.4038 18.3575V27.4719C87.4038 27.6687 87.4776 27.804 87.6252 27.8778C87.7974 27.927 87.9819 27.8532 88.1787 27.6564C89.2365 26.574 90.3927 26.0328 91.6474 26.0328C92.779 26.0328 93.7752 26.4141 94.6362 27.1767C95.5218 27.9147 96.2106 28.948 96.7027 30.2764C97.2193 31.6048 97.4776 33.1669 97.4776 34.9628C97.4776 37.0046 97.1578 38.8126 96.5181 40.3871C95.8785 41.9615 95.0052 43.1915 93.8982 44.0772C92.8159 44.9628 91.5859 45.4056 90.2082 45.4056ZM90.1344 44.4831C91.5121 44.4831 92.6191 43.6712 93.4554 42.0476C94.3164 40.424 94.7469 38.2345 94.7469 35.4794C94.7469 32.9455 94.3779 31.0144 93.6399 29.686C92.902 28.3575 91.8565 27.6933 90.5035 27.6933C89.667 27.6933 88.9413 28.0377 88.3263 28.7265C87.7113 29.4153 87.4038 30.3748 87.4038 31.6048V40.9037C87.4038 42.0107 87.6498 42.884 88.1418 43.5236C88.6584 44.1633 89.3226 44.4831 90.1344 44.4831ZM103.174 22.7487C102.657 22.7487 102.214 22.5642 101.845 22.1952C101.501 21.8261 101.329 21.3587 101.329 20.7929C101.329 20.2271 101.501 19.772 101.845 19.4276C102.214 19.0586 102.657 18.8741 103.174 18.8741C103.69 18.8741 104.121 19.0586 104.465 19.4276C104.81 19.772 104.982 20.2271 104.982 20.7929C104.982 21.3587 104.81 21.8261 104.465 22.1952C104.121 22.5642 103.69 22.7487 103.174 22.7487ZM100.074 45.0735C99.7049 45.0735 99.5204 44.9382 99.5204 44.6676C99.5204 44.4462 99.6803 44.2986 100 44.2248L100.443 44.151C101.058 44.0526 101.452 43.905 101.624 43.7081C101.796 43.4867 101.882 43.1177 101.882 42.6011V30.2026C101.882 29.7598 101.808 29.4645 101.661 29.3169C101.538 29.1448 101.304 29.0341 100.96 28.9849L100.185 28.8742C99.8648 28.8495 99.7049 28.7142 99.7049 28.4682C99.7049 28.2714 99.9017 28.1361 100.295 28.0623C101.058 27.9393 101.673 27.7425 102.14 27.4719C102.608 27.2013 103.063 26.8692 103.506 26.4756C103.727 26.2542 103.912 26.1435 104.059 26.1435C104.281 26.1435 104.391 26.2911 104.391 26.5863V42.6011C104.391 43.1177 104.465 43.4867 104.613 43.7081C104.76 43.9296 105.043 44.0649 105.461 44.1141L106.384 44.2248C106.655 44.274 106.79 44.4093 106.79 44.6307C106.79 44.9259 106.605 45.0735 106.236 45.0735H100.074ZM108.29 45.0735C107.921 45.0735 107.737 44.9136 107.737 44.5938C107.737 44.4954 107.773 44.3724 107.847 44.2248C107.921 44.0772 108.007 43.8926 108.106 43.6712L116.371 27.9516C116.494 27.7548 116.506 27.5826 116.408 27.435C116.334 27.2874 116.174 27.2136 115.928 27.2136H114.379C113.173 27.2136 112.275 27.4227 111.685 27.8409C111.119 28.2591 110.652 28.8619 110.283 29.6491L109.471 31.3465C109.323 31.6663 109.139 31.8262 108.917 31.8262C108.598 31.8262 108.475 31.6417 108.548 31.2727L109.434 26.2542C109.532 25.6638 109.754 25.3686 110.098 25.3686C110.32 25.3686 110.455 25.4424 110.504 25.59C110.553 25.7376 110.639 25.8852 110.762 26.0328C110.91 26.1804 111.218 26.2542 111.685 26.2542H119.065C119.434 26.2542 119.618 26.4141 119.618 26.7339C119.618 26.8323 119.582 26.9553 119.508 27.1029C119.459 27.2505 119.372 27.435 119.249 27.6564L111.021 43.376C110.922 43.5728 110.898 43.745 110.947 43.8927C111.021 44.0403 111.193 44.1141 111.464 44.1141H113.124C114.575 44.1141 115.596 43.9173 116.187 43.5236C116.777 43.1054 117.257 42.4412 117.626 41.531L118.733 38.8372C118.88 38.5174 119.065 38.3575 119.286 38.3575C119.606 38.3575 119.729 38.5666 119.655 38.9848L118.696 44.4093C118.622 44.8521 118.364 45.0735 117.921 45.0735H108.29Z" fill="#6E6E70"/>
<mask id="mask0_13_793" style="mask-type:luminance" maskUnits="userSpaceOnUse" x="74" y="17" width="47" height="29">
<path d="M120.054 17.2779H74.5272V45.8721H120.054V17.2779Z" fill="white"/>
<path d="M78.5965 22.7487C78.0799 22.7487 77.6371 22.5642 77.2681 22.1952C76.9237 21.8261 76.7514 21.3587 76.7514 20.7929C76.7514 20.2271 76.9237 19.772 77.2681 19.4276C77.6371 19.0586 78.0799 18.8741 78.5965 18.8741C79.1131 18.8741 79.5436 19.0586 79.888 19.4276C80.2324 19.772 80.4046 20.2271 80.4046 20.7929C80.4046 21.3587 80.2324 21.8261 79.888 22.1952C79.5436 22.5642 79.1131 22.7487 78.5965 22.7487ZM75.4968 45.0735C75.1278 45.0735 74.9433 44.9382 74.9433 44.6676C74.9433 44.4462 75.1032 44.2986 75.423 44.2248L75.8658 44.151C76.4808 44.0526 76.8744 43.905 77.0467 43.7081C77.2189 43.4867 77.305 43.1177 77.305 42.6011V30.2026C77.305 29.7598 77.2312 29.4645 77.0836 29.3169C76.9606 29.1448 76.7268 29.0341 76.3824 28.9849L75.6075 28.8742C75.2877 28.8495 75.1278 28.7142 75.1278 28.4682C75.1278 28.2714 75.3246 28.1361 75.7182 28.0623C76.4808 27.9393 77.0959 27.7425 77.5633 27.4719C78.0307 27.2013 78.4858 26.8692 78.9286 26.4756C79.15 26.2542 79.3345 26.1435 79.4821 26.1435C79.7035 26.1435 79.8142 26.2911 79.8142 26.5863V42.6011C79.8142 43.1177 79.888 43.4867 80.0356 43.7081C80.1832 43.9296 80.4661 44.0649 80.8844 44.1141L81.8069 44.2248C82.0775 44.274 82.2128 44.4093 82.2128 44.6307C82.2128 44.9259 82.0283 45.0735 81.6593 45.0735H75.4968ZM90.2075 45.4056C89.1989 45.4056 88.2272 45.0858 87.2923 44.4462C86.7511 44.0772 86.2591 44.1756 85.8163 44.7414C85.5703 45.012 85.3858 45.1842 85.2628 45.258C85.1398 45.3564 85.0168 45.4056 84.8938 45.4056C84.6232 45.4056 84.5248 45.2334 84.5986 44.889C84.697 44.3232 84.7708 43.5974 84.82 42.7118C84.8692 41.8262 84.8938 40.6454 84.8938 39.1693V21.4571C84.8938 21.0143 84.82 20.7191 84.6724 20.5715C84.5494 20.3993 84.3157 20.2886 83.9713 20.2394L83.1963 20.1287C82.9257 20.0795 82.7904 19.9319 82.7904 19.6859C82.7904 19.4399 82.9257 19.2923 83.1963 19.2431C83.8852 19.0955 84.4633 18.9233 84.9307 18.7265C85.3981 18.5297 85.7917 18.3329 86.1115 18.1361C86.5051 17.8901 86.8003 17.7671 86.9971 17.7671C87.2677 17.7671 87.403 17.9639 87.403 18.3575V27.4719C87.403 27.6687 87.4768 27.804 87.6244 27.8778C87.7967 27.927 87.9812 27.8532 88.178 27.6564C89.2358 26.574 90.392 26.0328 91.6466 26.0328C92.7783 26.0328 93.7744 26.4141 94.6355 27.1767C95.5211 27.9147 96.2099 28.948 96.7019 30.2764C97.2185 31.6048 97.4768 33.1669 97.4768 34.9628C97.4768 37.0046 97.157 38.8126 96.5174 40.3871C95.8778 41.9615 95.0045 43.1915 93.8974 44.0772C92.8152 44.9628 91.5851 45.4056 90.2075 45.4056ZM90.1337 44.4831C91.5113 44.4831 92.6184 43.6712 93.4546 42.0476C94.3157 40.424 94.7462 38.2345 94.7462 35.4794C94.7462 32.9455 94.3772 31.0144 93.6391 29.686C92.9013 28.3575 91.8558 27.6933 90.5027 27.6933C89.6663 27.6933 88.9406 28.0377 88.3256 28.7265C87.7106 29.4153 87.403 30.3748 87.403 31.6048V40.9037C87.403 42.0107 87.6491 42.884 88.1411 43.5236C88.6577 44.1633 89.3219 44.4831 90.1337 44.4831ZM103.173 22.7487C102.656 22.7487 102.213 22.5642 101.844 22.1952C101.5 21.8261 101.328 21.3587 101.328 20.7929C101.328 20.2271 101.5 19.772 101.844 19.4276C102.213 19.0586 102.656 18.8741 103.173 18.8741C103.689 18.8741 104.12 19.0586 104.464 19.4276C104.809 19.772 104.981 20.2271 104.981 20.7929C104.981 21.3587 104.809 21.8261 104.464 22.1952C104.12 22.5642 103.689 22.7487 103.173 22.7487ZM100.073 45.0735C99.7042 45.0735 99.5197 44.9382 99.5197 44.6676C99.5197 44.4462 99.6796 44.2986 99.9994 44.2248L100.442 44.151C101.057 44.0526 101.451 43.905 101.623 43.7081C101.795 43.4867 101.881 43.1177 101.881 42.6011V30.2026C101.881 29.7598 101.808 29.4645 101.66 29.3169C101.537 29.1448 101.303 29.0341 100.959 28.9849L100.184 28.8742C99.8641 28.8495 99.7042 28.7142 99.7042 28.4682C99.7042 28.2714 99.901 28.1361 100.295 28.0623C101.057 27.9393 101.672 27.7425 102.14 27.4719C102.607 27.2013 103.062 26.8692 103.505 26.4756C103.726 26.2542 103.911 26.1435 104.058 26.1435C104.28 26.1435 104.391 26.2911 104.391 26.5863V42.6011C104.391 43.1177 104.464 43.4867 104.612 43.7081C104.76 43.9296 105.042 44.0649 105.461 44.1141L106.383 44.2248C106.654 44.274 106.789 44.4093 106.789 44.6307C106.789 44.9259 106.605 45.0735 106.236 45.0735H100.073ZM108.289 45.0735C107.92 45.0735 107.736 44.9136 107.736 44.5938C107.736 44.4954 107.773 44.3724 107.846 44.2248C107.92 44.0772 108.006 43.8926 108.105 43.6712L116.37 27.9516C116.493 27.7548 116.506 27.5826 116.407 27.435C116.334 27.2874 116.174 27.2136 115.928 27.2136H114.378C113.173 27.2136 112.275 27.4227 111.684 27.8409C111.118 28.2591 110.651 28.8619 110.282 29.6491L109.47 31.3465C109.323 31.6663 109.138 31.8262 108.917 31.8262C108.597 31.8262 108.474 31.6417 108.548 31.2727L109.433 26.2542C109.532 25.6638 109.753 25.3686 110.097 25.3686C110.319 25.3686 110.454 25.4424 110.503 25.59C110.553 25.7376 110.639 25.8852 110.762 26.0328C110.909 26.1804 111.217 26.2542 111.684 26.2542H119.064C119.433 26.2542 119.618 26.4141 119.618 26.7339C119.618 26.8323 119.581 26.9553 119.507 27.1029C119.458 27.2505 119.372 27.435 119.249 27.6564L111.02 43.376C110.922 43.5728 110.897 43.745 110.946 43.8927C111.02 44.0403 111.192 44.1141 111.463 44.1141H113.123C114.575 44.1141 115.596 43.9173 116.186 43.5236C116.776 43.1054 117.256 42.4412 117.625 41.531L118.732 38.8372C118.88 38.5174 119.064 38.3575 119.286 38.3575C119.605 38.3575 119.728 38.5666 119.655 38.9848L118.695 44.4093C118.621 44.8521 118.363 45.0735 117.92 45.0735H108.289Z" fill="black"/>
</mask>
<g mask="url(#mask0_13_793)">
<path d="M77.2685 22.1951L77.0207 22.4263L77.0247 22.4306L77.0289 22.4347L77.2685 22.1951ZM79.8885 19.4276L79.6407 19.6588L79.6447 19.6631L79.6489 19.6672L79.8885 19.4276ZM75.4234 44.2247L75.3677 43.8905L75.3575 43.8921L75.3473 43.8945L75.4234 44.2247ZM75.8663 44.1509L75.8127 43.8162L75.8105 43.8167L75.8663 44.1509ZM77.0471 43.7081L77.3022 43.9313L77.3086 43.9239L77.3147 43.9162L77.0471 43.7081ZM77.084 29.3169L76.8083 29.5139L76.8246 29.5367L76.8444 29.5565L77.084 29.3169ZM75.608 28.8741L75.6559 28.5386L75.645 28.5371L75.634 28.5362L75.608 28.8741ZM75.7187 28.0623L75.6647 27.7277L75.6605 27.7284L75.6562 27.7292L75.7187 28.0623ZM78.929 26.4756L79.1541 26.7289L79.1616 26.7222L79.1687 26.7152L78.929 26.4756ZM80.8848 44.114L80.9252 43.7776L80.9244 43.7774L80.8848 44.114ZM81.8073 44.2247L81.8679 43.8913L81.8578 43.8894L81.8476 43.8883L81.8073 44.2247ZM78.5969 22.7486V22.4097C78.1712 22.4097 77.8143 22.2617 77.5081 21.9555L77.2685 22.1951L77.0289 22.4347C77.4607 22.8666 77.9894 23.0875 78.5969 23.0875V22.7486ZM77.2685 22.1951L77.5163 21.9639C77.2377 21.6654 77.0907 21.2841 77.0907 20.7929H76.7519H76.4131C76.4131 21.4333 76.6105 21.9868 77.0207 22.4263L77.2685 22.1951ZM76.7519 20.7929H77.0907C77.0907 20.3012 77.2377 19.9377 77.5081 19.6672L77.2685 19.4276L77.0289 19.1879C76.6107 19.6062 76.4131 20.1529 76.4131 20.7929H76.7519ZM77.2685 19.4276L77.5081 19.6672C77.8143 19.361 78.1712 19.2129 78.5969 19.2129V18.8741V18.5352C77.9894 18.5352 77.4607 18.7561 77.0289 19.1879L77.2685 19.4276ZM78.5969 18.8741V19.2129C79.0222 19.2129 79.3621 19.3603 79.6407 19.6588L79.8885 19.4276L80.1362 19.1963C79.726 18.7569 79.2049 18.5352 78.5969 18.5352V18.8741ZM79.8885 19.4276L79.6489 19.6672C79.9193 19.9377 80.0661 20.3012 80.0661 20.7929H80.4051H80.7439C80.7439 20.1529 80.5463 19.6062 80.1281 19.1879L79.8885 19.4276ZM80.4051 20.7929H80.0661C80.0661 21.2841 79.9193 21.6654 79.6407 21.9639L79.8885 22.1951L80.1362 22.4263C80.5465 21.9868 80.7439 21.4333 80.7439 20.7929H80.4051ZM79.8885 22.1951L79.6407 21.9639C79.3621 22.2624 79.0222 22.4097 78.5969 22.4097V22.7486V23.0875C79.2049 23.0875 79.726 22.8658 80.1362 22.4263L79.8885 22.1951ZM75.4973 45.0734V44.7346C75.3442 44.7346 75.2907 44.7047 75.2826 44.6987C75.2819 44.6982 75.2853 44.7012 75.2869 44.7049C75.2877 44.7065 75.2827 44.6969 75.2827 44.6675H74.9437H74.6049C74.6049 44.8885 74.6859 45.1016 74.8818 45.2452C75.0581 45.3746 75.2814 45.4123 75.4973 45.4123V45.0734ZM74.9437 44.6675H75.2827C75.2827 44.6603 75.2834 44.6559 75.2838 44.6535C75.2842 44.6512 75.2846 44.6503 75.2846 44.6501C75.2848 44.65 75.2851 44.6493 75.2859 44.648C75.2869 44.6466 75.2891 44.6439 75.2936 44.6397C75.3137 44.6212 75.3703 44.5848 75.4996 44.5549L75.4234 44.2247L75.3473 43.8945C75.1568 43.9385 74.9736 44.0127 74.8338 44.1418C74.683 44.2809 74.6049 44.4642 74.6049 44.6675H74.9437ZM75.4234 44.2247L75.4792 44.5591L75.922 44.4853L75.8663 44.1509L75.8105 43.8167L75.3677 43.8905L75.4234 44.2247ZM75.8663 44.1509L75.9198 44.4856C76.2401 44.4343 76.5163 44.3683 76.7417 44.2837C76.9624 44.2009 77.1632 44.0899 77.3022 43.9313L77.0471 43.7081L76.7921 43.4849C76.7588 43.5231 76.6766 43.5843 76.5038 43.6492C76.3356 43.7121 76.1075 43.7691 75.8127 43.8162L75.8663 44.1509ZM77.0471 43.7081L77.3147 43.9162C77.5583 43.6028 77.6442 43.1377 77.6442 42.6011H77.3054H76.9666C76.9666 43.0977 76.8803 43.3706 76.7797 43.5001L77.0471 43.7081ZM77.3054 42.6011H77.6442V30.2025H77.3054H76.9666V42.6011H77.3054ZM77.3054 30.2025H77.6442C77.6442 29.9648 77.6247 29.7504 77.5789 29.5668C77.5334 29.3852 77.4564 29.21 77.3236 29.0773L77.084 29.3169L76.8444 29.5565C76.8592 29.5714 76.8929 29.6176 76.9212 29.7312C76.9492 29.8428 76.9666 29.9975 76.9666 30.2025H77.3054ZM77.084 29.3169L77.3597 29.1199C77.157 28.836 76.8103 28.7035 76.4308 28.6493L76.3829 28.9848L76.3349 29.3203C76.6442 29.3645 76.7651 29.4535 76.8083 29.5139L77.084 29.3169ZM76.3829 28.9848L76.4308 28.6493L75.6559 28.5386L75.608 28.8741L75.56 29.2096L76.3349 29.3203L76.3829 28.9848ZM75.608 28.8741L75.634 28.5362C75.5097 28.5267 75.4707 28.4985 75.4671 28.4955C75.4666 28.4951 75.4674 28.4957 75.4687 28.4974C75.4699 28.4991 75.4706 28.5005 75.4707 28.5009C75.4712 28.5018 75.4672 28.4931 75.4672 28.4682H75.1282H74.7894C74.7894 28.6716 74.8597 28.8693 75.0294 29.0129C75.1856 29.1451 75.3865 29.197 75.5819 29.212L75.608 28.8741ZM75.1282 28.4682H75.4672C75.4672 28.4785 75.4637 28.493 75.4567 28.5049C75.4511 28.5145 75.4498 28.5108 75.4679 28.4984C75.5096 28.4697 75.6035 28.4287 75.7811 28.3954L75.7187 28.0623L75.6562 27.7292C75.4402 27.7697 75.2389 27.8332 75.0838 27.9399C74.9159 28.0554 74.7894 28.2336 74.7894 28.4682H75.1282ZM75.7187 28.0623L75.7727 28.3969C76.5599 28.2699 77.2185 28.0633 77.7335 27.7652L77.5637 27.4719L77.3939 27.1786C76.9741 27.4216 76.4027 27.6087 75.6647 27.7277L75.7187 28.0623ZM77.5637 27.4719L77.7335 27.7652C78.2225 27.4821 78.696 27.1362 79.1541 26.7289L78.929 26.4756L78.704 26.2223C78.2765 26.6022 77.8397 26.9205 77.3939 27.1786L77.5637 27.4719ZM78.929 26.4756L79.1687 26.7152C79.2679 26.6161 79.3474 26.5533 79.4078 26.5171C79.4701 26.4797 79.4921 26.4823 79.4826 26.4823V26.1435V25.8046C79.3254 25.8046 79.1814 25.8625 79.0591 25.9359C78.935 26.0104 78.8116 26.1137 78.6894 26.2359L78.929 26.4756ZM79.4826 26.1435V26.4823C79.5006 26.4823 79.5004 26.4854 79.4902 26.4808C79.4781 26.4754 79.4669 26.4661 79.4605 26.4575C79.4556 26.4508 79.4597 26.4531 79.4651 26.4747C79.4706 26.4967 79.4757 26.5325 79.4757 26.5863H79.8147H80.1535C80.1535 26.4061 80.1215 26.2092 80.0027 26.0508C79.8703 25.8742 79.6758 25.8046 79.4826 25.8046V26.1435ZM79.8147 26.5863H79.4757V42.6011H79.8147H80.1535V26.5863H79.8147ZM79.8147 42.6011H79.4757C79.4757 43.1317 79.5482 43.5872 79.7541 43.8961L80.0361 43.7081L80.318 43.5201C80.2287 43.3862 80.1535 43.1036 80.1535 42.6011H79.8147ZM80.0361 43.7081L79.7541 43.8961C79.9822 44.2383 80.3853 44.3964 80.8452 44.4506L80.8848 44.114L80.9244 43.7774C80.5477 43.7332 80.3851 43.6207 80.318 43.5201L80.0361 43.7081ZM80.8848 44.114L80.8444 44.4504L81.7669 44.5611L81.8073 44.2247L81.8476 43.8883L80.9252 43.7776L80.8848 44.114ZM81.8073 44.2247L81.7466 44.5581C81.8425 44.5755 81.8703 44.6009 81.872 44.6027C81.8725 44.6031 81.8722 44.6028 81.8715 44.602C81.8711 44.6011 81.8707 44.6006 81.8709 44.6009C81.8712 44.6014 81.8742 44.6099 81.8742 44.6306H82.2132H82.552C82.552 44.4453 82.4926 44.2646 82.3514 44.1234C82.2179 43.99 82.0426 43.9231 81.8679 43.8913L81.8073 44.2247ZM82.2132 44.6306H81.8742C81.8742 44.6698 81.8682 44.6883 81.8658 44.694C81.8642 44.6977 81.864 44.6974 81.8631 44.698C81.8565 44.7035 81.808 44.7346 81.6597 44.7346V45.0734V45.4123C81.8803 45.4123 82.1086 45.3696 82.2865 45.2274C82.4789 45.0734 82.552 44.853 82.552 44.6306H82.2132ZM81.6597 45.0734V44.7346H75.4973V45.0734V45.4123H81.6597V45.0734ZM87.2928 44.4461L87.4842 44.1664L87.4837 44.1661L87.2928 44.4461ZM85.8167 44.7413L86.0675 44.9693L86.0758 44.96L86.0837 44.9501L85.8167 44.7413ZM85.2632 45.2579L85.0889 44.9674L85.0693 44.979L85.0516 44.9932L85.2632 45.2579ZM84.599 44.8889L84.9303 44.96L84.9318 44.9535L84.9329 44.9469L84.599 44.8889ZM84.6728 20.5715L84.3971 20.7685L84.4134 20.7913L84.4332 20.8111L84.6728 20.5715ZM83.1968 20.1287L83.1362 20.4621L83.1425 20.4632L83.1488 20.4642L83.1968 20.1287ZM83.1968 19.2431L83.2575 19.5765L83.2626 19.5755L83.2679 19.5744L83.1968 19.2431ZM86.1119 18.1361L86.2896 18.4247L86.2905 18.424L86.2915 18.4234L86.1119 18.1361ZM87.6249 27.8778L87.4733 28.1809L87.5016 28.195L87.5318 28.2036L87.6249 27.8778ZM88.1784 27.6564L88.418 27.896L88.4195 27.8946L88.4207 27.8932L88.1784 27.6564ZM94.6359 27.1767L94.4113 27.4304L94.4151 27.4337L94.419 27.437L94.6359 27.1767ZM96.7024 30.2763L96.3846 30.394L96.3856 30.3966L96.3865 30.3992L96.7024 30.2763ZM93.8979 44.0771L93.6862 43.8126L93.6848 43.8137L93.6834 43.8148L93.8979 44.0771ZM93.4551 42.0476L93.1557 41.8888L93.1548 41.8905L93.154 41.8924L93.4551 42.0476ZM88.1415 43.5236L87.8728 43.7303L87.8754 43.7333L87.8779 43.7365L88.1415 43.5236ZM90.208 45.4055V45.0667C89.2758 45.0667 88.3698 44.7725 87.4842 44.1664L87.2928 44.4461L87.1014 44.7258C88.0854 45.399 89.1228 45.7444 90.208 45.7444V45.4055ZM87.2928 44.4461L87.4837 44.1661C87.1618 43.9468 86.8116 43.8388 86.4514 43.9108C86.0977 43.9816 85.8 44.2129 85.5498 44.5325L85.8167 44.7413L86.0837 44.9501C86.2763 44.7039 86.446 44.6031 86.5843 44.5755C86.7161 44.5492 86.8826 44.5766 87.1019 44.7262L87.2928 44.4461ZM85.8167 44.7413L85.5659 44.5134C85.3182 44.7859 85.1639 44.9223 85.0889 44.9674L85.2632 45.2579L85.4377 45.5485C85.6086 45.446 85.8233 45.238 86.0675 44.9693L85.8167 44.7413ZM85.2632 45.2579L85.0516 44.9932C84.9715 45.0573 84.9209 45.0667 84.8942 45.0667V45.4055V45.7444C85.1135 45.7444 85.3089 45.6554 85.4749 45.5226L85.2632 45.2579ZM84.8942 45.4055V45.0667C84.8605 45.0667 84.8559 45.061 84.8669 45.0661C84.873 45.069 84.8818 45.0742 84.891 45.0827C84.9003 45.0912 84.9072 45.1003 84.9118 45.1083C84.9204 45.1236 84.9158 45.1257 84.9145 45.0988C84.9132 45.0718 84.9159 45.0269 84.9303 44.96L84.599 44.8889L84.2677 44.818C84.2255 45.0145 84.2107 45.2476 84.3233 45.4445C84.4541 45.6734 84.6875 45.7444 84.8942 45.7444V45.4055ZM84.599 44.8889L84.9329 44.9469C85.0345 44.3632 85.1092 43.6231 85.1588 42.7306L84.8204 42.7118L84.4821 42.6929C84.4332 43.5717 84.3605 44.283 84.2651 44.8309L84.599 44.8889ZM84.8204 42.7118L85.1588 42.7306C85.2084 41.8361 85.2332 40.6482 85.2332 39.1693H84.8942H84.5554C84.5554 40.6426 84.5308 41.8164 84.4821 42.6929L84.8204 42.7118ZM84.8942 39.1693H85.2332V21.4571H84.8942H84.5554V39.1693H84.8942ZM84.8942 21.4571H85.2332C85.2332 21.2193 85.2135 21.005 85.1677 20.8214C85.1223 20.6398 85.0452 20.4646 84.9124 20.3319L84.6728 20.5715L84.4332 20.8111C84.448 20.826 84.4818 20.8721 84.5102 20.9858C84.538 21.0974 84.5554 21.252 84.5554 21.4571H84.8942ZM84.6728 20.5715L84.9485 20.3745C84.7458 20.0905 84.3992 19.9581 84.0196 19.9039L83.9717 20.2394L83.9238 20.5749C84.233 20.619 84.354 20.708 84.3971 20.7685L84.6728 20.5715ZM83.9717 20.2394L84.0196 19.9039L83.2447 19.7932L83.1968 20.1287L83.1488 20.4642L83.9238 20.5749L83.9717 20.2394ZM83.1968 20.1287L83.2575 19.7953C83.1682 19.779 83.1442 19.7543 83.1421 19.7521C83.141 19.7509 83.1391 19.7487 83.1367 19.7418C83.134 19.7338 83.1298 19.7165 83.1298 19.6859H82.7909H82.452C82.452 19.8733 82.5052 20.0602 82.6426 20.2101C82.7758 20.3555 82.9549 20.4291 83.1362 20.4621L83.1968 20.1287ZM82.7909 19.6859H83.1298C83.1298 19.6552 83.134 19.6379 83.1367 19.63C83.1391 19.6231 83.141 19.6209 83.1421 19.6197C83.1442 19.6175 83.1682 19.5927 83.2575 19.5765L83.1968 19.2431L83.1362 18.9097C82.9549 18.9426 82.7758 19.0162 82.6426 19.1617C82.5052 19.3115 82.452 19.4984 82.452 19.6859H82.7909ZM83.1968 19.2431L83.2679 19.5744C83.9699 19.424 84.5698 19.2463 85.0626 19.0388L84.9311 18.7265L84.7996 18.4141C84.3576 18.6002 83.8012 18.767 83.1258 18.9117L83.1968 19.2431ZM84.9311 18.7265L85.0626 19.0388C85.5409 18.8374 85.9509 18.6331 86.2896 18.4247L86.1119 18.1361L85.9343 17.8474C85.6334 18.0327 85.2562 18.2219 84.7996 18.4141L84.9311 18.7265ZM86.1119 18.1361L86.2915 18.4234C86.479 18.3063 86.6341 18.2241 86.7589 18.1721C86.8878 18.1184 86.9632 18.1059 86.9976 18.1059V17.767V17.4282C86.8351 17.4282 86.6645 17.4772 86.4982 17.5465C86.3278 17.6175 86.1385 17.7198 85.9324 17.8487L86.1119 18.1361ZM86.9976 17.767V18.1059C87.0241 18.1059 87.031 18.1106 87.0273 18.1089C87.022 18.1063 87.0201 18.1029 87.0228 18.1066C87.0337 18.1226 87.0647 18.189 87.0647 18.3574H87.4035H87.7423C87.7423 18.1323 87.7056 17.9035 87.5813 17.7227C87.4412 17.5189 87.2271 17.4282 86.9976 17.4282V17.767ZM87.4035 18.3574H87.0647V27.4719H87.4035H87.7423V18.3574H87.4035ZM87.4035 27.4719H87.0647C87.0647 27.6116 87.0907 27.7539 87.1613 27.8832C87.2337 28.016 87.3423 28.1154 87.4733 28.1809L87.6249 27.8778L87.7765 27.5747C87.7667 27.5698 87.7623 27.5661 87.7607 27.5645C87.7592 27.5631 87.758 27.5616 87.7564 27.5587C87.753 27.5527 87.7423 27.5289 87.7423 27.4719H87.4035ZM87.6249 27.8778L87.5318 28.2036C87.8792 28.3029 88.1862 28.1278 88.418 27.896L88.1784 27.6564L87.9388 27.4168C87.8607 27.4948 87.8027 27.5302 87.7666 27.5447C87.7359 27.5569 87.7239 27.5536 87.718 27.552L87.6249 27.8778ZM88.1784 27.6564L88.4207 27.8932C89.4289 26.8616 90.502 26.3716 91.6471 26.3716V26.0328V25.6939C90.2829 25.6939 89.0434 26.2863 87.9361 27.4195L88.1784 27.6564ZM91.6471 26.0328V26.3716C92.6944 26.3716 93.6111 26.7216 94.4113 27.4304L94.6359 27.1767L94.8607 26.923C93.9388 26.1065 92.8629 25.6939 91.6471 25.6939V26.0328ZM94.6359 27.1767L94.419 27.437C95.2498 28.1293 95.9084 29.1085 96.3846 30.394L96.7024 30.2763L97.0203 30.1586C96.5123 28.7873 95.7934 27.7 94.8528 26.9163L94.6359 27.1767ZM96.7024 30.2763L96.3865 30.3992C96.8846 31.6797 97.1385 33.1984 97.1385 34.9627H97.4773H97.8163C97.8163 33.1353 97.5535 31.5298 97.0182 30.1535L96.7024 30.2763ZM97.4773 34.9627H97.1385C97.1385 36.9694 96.8241 38.7329 96.204 40.2595L96.5179 40.387L96.8319 40.5147C97.4909 38.8924 97.8163 37.0396 97.8163 34.9627H97.4773ZM96.5179 40.387L96.204 40.2595C95.5818 41.7908 94.7399 42.9696 93.6862 43.8126L93.8979 44.0771L94.1097 44.3418C95.2701 43.4134 96.1747 42.1321 96.8319 40.5147L96.5179 40.387ZM93.8979 44.0771L93.6834 43.8148C92.6605 44.6517 91.506 45.0667 90.208 45.0667V45.4055V45.7444C91.665 45.7444 92.9706 45.2738 94.1126 44.3394L93.8979 44.0771ZM90.1342 44.483V44.8218C91.6805 44.8218 92.884 43.8964 93.7564 42.2028L93.4551 42.0476L93.154 41.8924C92.3535 43.4461 91.3429 44.1442 90.1342 44.1442V44.483ZM93.4551 42.0476L93.7546 42.2063C94.6512 40.5154 95.0856 38.2645 95.0856 35.4793H94.7466H94.4078C94.4078 38.2046 93.9811 40.3325 93.1557 41.8888L93.4551 42.0476ZM94.7466 35.4793H95.0856C95.0856 32.9218 94.7147 30.9232 93.9359 29.5213L93.6396 29.6859L93.3434 29.8505C94.0407 31.1055 94.4078 32.9691 94.4078 35.4793H94.7466ZM93.6396 29.6859L93.9359 29.5213C93.1471 28.1014 91.9966 27.3544 90.5032 27.3544V27.6933V28.0322C91.7156 28.0322 92.6562 28.6136 93.3434 29.8505L93.6396 29.6859ZM90.5032 27.6933V27.3544C89.5596 27.3544 88.745 27.7484 88.0731 28.5008L88.326 28.7265L88.5787 28.9522C89.137 28.327 89.7739 28.0322 90.5032 28.0322V27.6933ZM88.326 28.7265L88.0731 28.5008C87.3865 29.2699 87.0647 30.3196 87.0647 31.6047H87.4035H87.7423C87.7423 30.4299 88.0354 29.5607 88.5787 28.9522L88.326 28.7265ZM87.4035 31.6047H87.0647V40.9036H87.4035H87.7423V31.6047H87.4035ZM87.4035 40.9036H87.0647C87.0647 42.0581 87.3211 43.0129 87.8728 43.7303L88.1415 43.5236L88.41 43.317C87.9779 42.7552 87.7423 41.9634 87.7423 40.9036H87.4035ZM88.1415 43.5236L87.8779 43.7365C88.4578 44.4546 89.2183 44.8218 90.1342 44.8218V44.483V44.1442C89.4262 44.1442 88.8583 43.8718 88.4051 43.3107L88.1415 43.5236ZM101.845 22.1951L101.597 22.4263L101.601 22.4306L101.605 22.4347L101.845 22.1951ZM104.465 19.4276L104.217 19.6588L104.221 19.6631L104.225 19.6672L104.465 19.4276ZM99.9998 44.2247L99.9441 43.8905L99.9338 43.8921L99.9236 43.8945L99.9998 44.2247ZM100.443 44.1509L100.389 43.8162L100.387 43.8167L100.443 44.1509ZM101.623 43.7081L101.878 43.9313L101.885 43.9239L101.891 43.9162L101.623 43.7081ZM101.66 29.3169L101.385 29.5139L101.401 29.5367L101.421 29.5565L101.66 29.3169ZM100.184 28.8741L100.232 28.5386L100.221 28.5371L100.21 28.5362L100.184 28.8741ZM100.295 28.0623L100.241 27.7277L100.237 27.7284L100.233 27.7292L100.295 28.0623ZM103.505 26.4756L103.73 26.7289L103.738 26.7222L103.745 26.7152L103.505 26.4756ZM105.461 44.114L105.501 43.7776L105.501 43.7774L105.461 44.114ZM106.384 44.2247L106.444 43.8913L106.434 43.8894L106.424 43.8883L106.384 44.2247ZM103.173 22.7486V22.4097C102.748 22.4097 102.391 22.2617 102.084 21.9555L101.845 22.1951L101.605 22.4347C102.037 22.8666 102.566 23.0875 103.173 23.0875V22.7486ZM101.845 22.1951L102.093 21.9639C101.814 21.6654 101.667 21.2841 101.667 20.7929H101.328H100.989C100.989 21.4333 101.187 21.9868 101.597 22.4263L101.845 22.1951ZM101.328 20.7929H101.667C101.667 20.3012 101.814 19.9377 102.084 19.6672L101.845 19.4276L101.605 19.1879C101.187 19.6062 100.989 20.1529 100.989 20.7929H101.328ZM101.845 19.4276L102.084 19.6672C102.391 19.361 102.748 19.2129 103.173 19.2129V18.8741V18.5352C102.566 18.5352 102.037 18.7561 101.605 19.1879L101.845 19.4276ZM103.173 18.8741V19.2129C103.598 19.2129 103.938 19.3603 104.217 19.6588L104.465 19.4276L104.713 19.1963C104.302 18.7569 103.781 18.5352 103.173 18.5352V18.8741ZM104.465 19.4276L104.225 19.6672C104.496 19.9377 104.642 20.3012 104.642 20.7929H104.981H105.32C105.32 20.1529 105.123 19.6062 104.704 19.1879L104.465 19.4276ZM104.981 20.7929H104.642C104.642 21.2841 104.496 21.6654 104.217 21.9639L104.465 22.1951L104.713 22.4263C105.123 21.9868 105.32 21.4333 105.32 20.7929H104.981ZM104.465 22.1951L104.217 21.9639C103.938 22.2624 103.598 22.4097 103.173 22.4097V22.7486V23.0875C103.781 23.0875 104.302 22.8658 104.713 22.4263L104.465 22.1951ZM100.074 45.0734V44.7346C99.9206 44.7346 99.8671 44.7047 99.8589 44.6987C99.8583 44.6982 99.8616 44.7012 99.8632 44.7049C99.864 44.7065 99.8589 44.6969 99.8589 44.6675H99.5201H99.1813C99.1813 44.8885 99.2621 45.1016 99.4581 45.2452C99.6343 45.3746 99.8576 45.4123 100.074 45.4123V45.0734ZM99.5201 44.6675H99.8589C99.8589 44.6603 99.8595 44.6559 99.86 44.6535C99.8605 44.6512 99.861 44.6503 99.861 44.6501C99.8611 44.65 99.8613 44.6493 99.8623 44.648C99.8632 44.6466 99.8655 44.6439 99.8699 44.6397C99.8899 44.6212 99.9466 44.5848 100.076 44.5549L99.9998 44.2247L99.9236 43.8945C99.7332 43.9385 99.55 44.0127 99.4102 44.1418C99.2594 44.2809 99.1813 44.4642 99.1813 44.6675H99.5201ZM99.9998 44.2247L100.056 44.5591L100.498 44.4853L100.443 44.1509L100.387 43.8167L99.9441 43.8905L99.9998 44.2247ZM100.443 44.1509L100.496 44.4856C100.816 44.4343 101.093 44.3683 101.318 44.2837C101.539 44.2009 101.74 44.0899 101.878 43.9313L101.623 43.7081L101.368 43.4849C101.335 43.5231 101.253 43.5843 101.08 43.6492C100.912 43.7121 100.684 43.7691 100.389 43.8162L100.443 44.1509ZM101.623 43.7081L101.891 43.9162C102.135 43.6028 102.221 43.1377 102.221 42.6011H101.882H101.543C101.543 43.0977 101.457 43.3706 101.356 43.5001L101.623 43.7081ZM101.882 42.6011H102.221V30.2025H101.882H101.543V42.6011H101.882ZM101.882 30.2025H102.221C102.221 29.9648 102.201 29.7504 102.155 29.5668C102.11 29.3852 102.033 29.21 101.9 29.0773L101.66 29.3169L101.421 29.5565C101.436 29.5714 101.469 29.6176 101.498 29.7312C101.526 29.8428 101.543 29.9975 101.543 30.2025H101.882ZM101.66 29.3169L101.936 29.1199C101.733 28.836 101.387 28.7035 101.007 28.6493L100.959 28.9848L100.911 29.3203C101.221 29.3645 101.341 29.4535 101.385 29.5139L101.66 29.3169ZM100.959 28.9848L101.007 28.6493L100.232 28.5386L100.184 28.8741L100.136 29.2096L100.911 29.3203L100.959 28.9848ZM100.184 28.8741L100.21 28.5362C100.086 28.5267 100.047 28.4985 100.043 28.4955C100.043 28.4951 100.044 28.4957 100.045 28.4974C100.046 28.4991 100.047 28.5005 100.047 28.5009C100.048 28.5018 100.043 28.4931 100.043 28.4682H99.7046H99.3658C99.3658 28.6716 99.4361 28.8693 99.6056 29.0129C99.7619 29.1451 99.9627 29.197 100.158 29.212L100.184 28.8741ZM99.7046 28.4682H100.043C100.043 28.4785 100.04 28.493 100.033 28.5049C100.027 28.5145 100.026 28.5108 100.044 28.4984C100.086 28.4697 100.18 28.4287 100.357 28.3954L100.295 28.0623L100.233 27.7292C100.017 27.7697 99.8153 27.8332 99.6602 27.9399C99.4921 28.0554 99.3658 28.2336 99.3658 28.4682H99.7046ZM100.295 28.0623L100.349 28.3969C101.136 28.2699 101.795 28.0633 102.31 27.7652L102.14 27.4719L101.97 27.1786C101.55 27.4216 100.979 27.6087 100.241 27.7277L100.295 28.0623ZM102.14 27.4719L102.31 27.7652C102.799 27.4821 103.272 27.1362 103.73 26.7289L103.505 26.4756L103.28 26.2223C102.853 26.6022 102.416 26.9205 101.97 27.1786L102.14 27.4719ZM103.505 26.4756L103.745 26.7152C103.844 26.6161 103.924 26.5533 103.984 26.5171C104.046 26.4797 104.068 26.4823 104.059 26.4823V26.1435V25.8046C103.902 25.8046 103.758 25.8625 103.635 25.9359C103.511 26.0104 103.388 26.1137 103.266 26.2359L103.505 26.4756ZM104.059 26.1435V26.4823C104.077 26.4823 104.077 26.4854 104.067 26.4808C104.054 26.4754 104.043 26.4661 104.037 26.4575C104.032 26.4508 104.036 26.4531 104.042 26.4747C104.047 26.4967 104.052 26.5325 104.052 26.5863H104.391H104.73C104.73 26.4061 104.698 26.2092 104.579 26.0508C104.447 25.8742 104.252 25.8046 104.059 25.8046V26.1435ZM104.391 26.5863H104.052V42.6011H104.391H104.73V26.5863H104.391ZM104.391 42.6011H104.052C104.052 43.1317 104.124 43.5872 104.33 43.8961L104.612 43.7081L104.894 43.5201C104.805 43.3862 104.73 43.1036 104.73 42.6011H104.391ZM104.612 43.7081L104.33 43.8961C104.559 44.2383 104.962 44.3964 105.422 44.4506L105.461 44.114L105.501 43.7774C105.124 43.7332 104.961 43.6207 104.894 43.5201L104.612 43.7081ZM105.461 44.114L105.421 44.4504L106.343 44.5611L106.384 44.2247L106.424 43.8883L105.501 43.7776L105.461 44.114ZM106.384 44.2247L106.323 44.5581C106.419 44.5755 106.447 44.6009 106.448 44.6027C106.449 44.6031 106.449 44.6028 106.448 44.602C106.447 44.6011 106.447 44.6006 106.447 44.6009C106.448 44.6014 106.451 44.6099 106.451 44.6306H106.79H107.128C107.128 44.4453 107.069 44.2646 106.928 44.1234C106.794 43.99 106.619 43.9231 106.444 43.8913L106.384 44.2247ZM106.79 44.6306H106.451C106.451 44.6698 106.445 44.6883 106.442 44.694C106.441 44.6977 106.44 44.6974 106.439 44.698C106.433 44.7035 106.384 44.7346 106.236 44.7346V45.0734V45.4123C106.457 45.4123 106.685 45.3696 106.863 45.2274C107.055 45.0734 107.128 44.853 107.128 44.6306H106.79ZM106.236 45.0734V44.7346H100.074V45.0734V45.4123H106.236V45.0734ZM108.105 43.6712L107.805 43.5135L107.8 43.5234L107.795 43.5337L108.105 43.6712ZM116.371 27.9516L116.084 27.772L116.077 27.7827L116.071 27.7939L116.371 27.9516ZM116.408 27.435L116.105 27.5865L116.114 27.6054L116.126 27.623L116.408 27.435ZM111.685 27.8409L111.489 27.5643L111.486 27.5663L111.483 27.5684L111.685 27.8409ZM110.282 29.649L110.588 29.7952L110.589 29.794L110.589 29.7928L110.282 29.649ZM109.471 31.3464L109.165 31.2002L109.164 31.2023L109.163 31.2044L109.471 31.3464ZM108.548 31.2726L108.88 31.3391L108.881 31.3353L108.882 31.3315L108.548 31.2726ZM109.434 26.2542L109.767 26.3131L109.768 26.3115L109.768 26.3099L109.434 26.2542ZM110.762 26.0328L110.502 26.2497L110.512 26.2615L110.522 26.2724L110.762 26.0328ZM119.507 27.1029L119.204 26.9513L119.194 26.9729L119.186 26.9957L119.507 27.1029ZM119.249 27.6564L118.953 27.4918L118.951 27.4955L118.949 27.4992L119.249 27.6564ZM111.02 43.376L110.72 43.2188L110.719 43.2217L110.717 43.2244L111.02 43.376ZM110.947 43.8926L110.625 43.9998L110.633 44.0226L110.643 44.0442L110.947 43.8926ZM116.186 43.5236L116.374 43.8055L116.378 43.803L116.382 43.8001L116.186 43.5236ZM117.626 41.5309L117.312 41.4022L117.311 41.4036L117.626 41.5309ZM118.733 38.8372L118.425 38.6952L118.422 38.7017L118.419 38.7084L118.733 38.8372ZM119.655 38.9848L119.989 39.0439V39.0437L119.655 38.9848ZM118.696 44.4092L118.362 44.3503L118.362 44.3519L118.361 44.3535L118.696 44.4092ZM108.29 45.0734V44.7346C108.147 44.7346 108.102 44.7025 108.097 44.6974C108.095 44.6958 108.091 44.6929 108.087 44.6819C108.082 44.669 108.075 44.6418 108.075 44.5937H107.736H107.397C107.397 44.8194 107.465 45.0468 107.653 45.2095C107.831 45.3645 108.064 45.4123 108.29 45.4123V45.0734ZM107.736 44.5937H108.075C108.075 44.5722 108.086 44.5047 108.15 44.3763L107.847 44.2247L107.544 44.0731C107.461 44.2399 107.397 44.4185 107.397 44.5937H107.736ZM107.847 44.2247L108.15 44.3763C108.227 44.2225 108.315 44.033 108.415 43.8089L108.105 43.6712L107.795 43.5337C107.698 43.7522 107.615 43.9317 107.544 44.0731L107.847 44.2247ZM108.105 43.6712L108.405 43.8289L116.671 28.1093L116.371 27.9516L116.071 27.7939L107.805 43.5135L108.105 43.6712ZM116.371 27.9516L116.658 28.1312C116.739 28.0013 116.799 27.856 116.811 27.699C116.822 27.5357 116.78 27.3815 116.69 27.247L116.408 27.435L116.126 27.623C116.132 27.6314 116.133 27.6364 116.134 27.6384C116.134 27.6403 116.135 27.6438 116.134 27.6507C116.133 27.6659 116.125 27.705 116.084 27.772L116.371 27.9516ZM116.408 27.435L116.711 27.2834C116.554 26.9692 116.232 26.8747 115.928 26.8747V27.2136V27.5525C116.02 27.5525 116.069 27.5667 116.091 27.5766C116.106 27.5836 116.105 27.5864 116.105 27.5865L116.408 27.435ZM115.928 27.2136V26.8747H114.378V27.2136V27.5525H115.928V27.2136ZM114.378 27.2136V26.8747C113.145 26.8747 112.163 27.0866 111.489 27.5643L111.685 27.8409L111.88 28.1174C112.387 27.7588 113.201 27.5525 114.378 27.5525V27.2136ZM111.685 27.8409L111.483 27.5684C110.863 28.027 110.363 28.6788 109.976 29.5052L110.282 29.649L110.589 29.7928C110.94 29.0448 111.375 28.4911 111.886 28.1134L111.685 27.8409ZM110.282 29.649L109.977 29.5028L109.165 31.2002L109.471 31.3464L109.776 31.4927L110.588 29.7952L110.282 29.649ZM109.471 31.3464L109.163 31.2044C109.034 31.4825 108.938 31.4873 108.917 31.4873V31.8262V32.165C109.339 32.165 109.611 31.85 109.778 31.4885L109.471 31.3464ZM108.917 31.8262V31.4873C108.868 31.4873 108.847 31.4799 108.844 31.4787C108.844 31.4784 108.847 31.4798 108.853 31.4841C108.858 31.4886 108.863 31.4942 108.867 31.4998C108.875 31.5113 108.869 31.5115 108.867 31.4848C108.865 31.457 108.866 31.41 108.88 31.3391L108.548 31.2726L108.216 31.2062C108.173 31.4212 108.166 31.671 108.303 31.8758C108.452 32.0996 108.698 32.165 108.917 32.165V31.8262ZM108.548 31.2726L108.882 31.3315L109.767 26.3131L109.434 26.2542L109.1 26.1953L108.214 31.2137L108.548 31.2726ZM109.434 26.2542L109.768 26.3099C109.813 26.0386 109.881 25.8785 109.945 25.7933C109.997 25.7239 110.041 25.7074 110.098 25.7074V25.3685V25.0297C109.811 25.0297 109.572 25.1608 109.402 25.3866C109.245 25.5966 109.153 25.8793 109.099 26.1985L109.434 26.2542ZM110.098 25.3685V25.7074C110.135 25.7074 110.161 25.7106 110.179 25.7143C110.197 25.7179 110.203 25.7216 110.203 25.7214C110.202 25.7208 110.196 25.7174 110.19 25.71C110.184 25.7027 110.182 25.6971 110.182 25.6971L110.504 25.59L110.825 25.4828C110.774 25.3286 110.671 25.2048 110.528 25.1264C110.393 25.0531 110.242 25.0297 110.098 25.0297V25.3685ZM110.504 25.59L110.182 25.6971C110.248 25.893 110.358 26.077 110.502 26.2497L110.762 26.0328L111.022 25.8158C110.92 25.6933 110.858 25.5821 110.825 25.4828L110.504 25.59ZM110.762 26.0328L110.522 26.2724C110.658 26.4076 110.839 26.4838 111.024 26.5283C111.213 26.5736 111.436 26.5931 111.685 26.5931V26.2542V25.9153C111.466 25.9153 111.301 25.8978 111.183 25.8693C111.061 25.84 111.014 25.8056 111.002 25.7931L110.762 26.0328ZM111.685 26.2542V26.5931H119.065V26.2542V25.9153H111.685V26.2542ZM119.065 26.2542V26.5931C119.208 26.5931 119.252 26.6251 119.258 26.6302C119.26 26.6318 119.263 26.6347 119.267 26.6457C119.272 26.6586 119.279 26.6857 119.279 26.7339H119.618H119.957C119.957 26.5081 119.89 26.2809 119.702 26.118C119.523 25.9632 119.291 25.9153 119.065 25.9153V26.2542ZM119.618 26.7339H119.279C119.279 26.7555 119.269 26.8229 119.204 26.9513L119.507 27.1029L119.811 27.2544C119.894 27.0877 119.957 26.9091 119.957 26.7339H119.618ZM119.507 27.1029L119.186 26.9957C119.146 27.115 119.071 27.2789 118.953 27.4918L119.249 27.6564L119.545 27.821C119.673 27.5911 119.77 27.3859 119.829 27.21L119.507 27.1029ZM119.249 27.6564L118.949 27.4992L110.72 43.2188L111.02 43.376L111.321 43.5332L119.549 27.8135L119.249 27.6564ZM111.02 43.376L110.717 43.2244C110.595 43.468 110.538 43.7369 110.625 43.9998L110.947 43.8926L111.268 43.7854C111.257 43.7531 111.249 43.6776 111.323 43.5276L111.02 43.376ZM110.947 43.8926L110.643 44.0442C110.806 44.3685 111.152 44.4528 111.463 44.4528V44.114V43.7752C111.355 43.7752 111.294 43.7599 111.265 43.7472C111.242 43.7373 111.246 43.7335 111.25 43.741L110.947 43.8926ZM111.463 44.114V44.4528H113.124V44.114V43.7752H111.463V44.114ZM113.124 44.114V44.4528C114.585 44.4528 115.695 44.2587 116.374 43.8055L116.186 43.5236L115.999 43.2416C115.497 43.5757 114.565 43.7752 113.124 43.7752V44.114ZM116.186 43.5236L116.382 43.8001C117.041 43.3333 117.555 42.6078 117.94 41.6583L117.626 41.5309L117.311 41.4036C116.958 42.2747 116.512 42.8774 115.991 43.2471L116.186 43.5236ZM117.626 41.5309L117.939 41.6599L119.046 38.9661L118.733 38.8372L118.419 38.7084L117.312 41.4022L117.626 41.5309ZM118.733 38.8372L119.04 38.9792C119.169 38.7012 119.266 38.6964 119.286 38.6964V38.3575V38.0186C118.864 38.0186 118.592 38.3337 118.425 38.6952L118.733 38.8372ZM119.286 38.3575V38.6964C119.331 38.6964 119.346 38.7039 119.344 38.7031C119.339 38.7006 119.33 38.6931 119.326 38.6862C119.324 38.683 119.332 38.6952 119.336 38.7369C119.339 38.7789 119.337 38.8405 119.321 38.926L119.655 38.9848L119.989 39.0437C120.03 38.8092 120.034 38.5525 119.91 38.3426C119.769 38.1017 119.522 38.0186 119.286 38.0186V38.3575ZM119.655 38.9848L119.321 38.926L118.362 44.3503L118.696 44.4092L119.029 44.4683L119.989 39.0439L119.655 38.9848ZM118.696 44.4092L118.361 44.3535C118.333 44.5218 118.278 44.6057 118.226 44.6501C118.175 44.6939 118.086 44.7346 117.921 44.7346V45.0734V45.4123C118.198 45.4123 118.46 45.3423 118.667 45.1647C118.874 44.9877 118.984 44.7394 119.03 44.465L118.696 44.4092ZM117.921 45.0734V44.7346H108.29V45.0734V45.4123H117.921V45.0734Z" fill="#6E6E70"/>
</g>
<defs>
<filter id="filter0_i_13_793" x="27.6748" y="17.2388" width="47.0094" height="31.2166" filterUnits="userSpaceOnUse" color-interpolation-filters="sRGB">
<feFlood flood-opacity="0" result="BackgroundImageFix"/>
<feBlend mode="normal" in="SourceGraphic" in2="BackgroundImageFix" result="shape"/>
<feColorMatrix in="SourceAlpha" type="matrix" values="0 0 0 0 0 0 0 0 0 0 0 0 0 0 0 0 0 0 127 0" result="hardAlpha"/>
<feOffset dy="0.798722"/>
<feGaussianBlur stdDeviation="0.798722"/>
<feComposite in2="hardAlpha" operator="arithmetic" k2="-1" k3="1"/>
<feColorMatrix type="matrix" values="0 0 0 0 1 0 0 0 0 1 0 0 0 0 1 0 0 0 0.25 0"/>
<feBlend mode="normal" in2="shape" result="effect1_innerShadow_13_793"/>
</filter>
</defs>
</svg>
