<svg width="148" height="66" viewBox="0 0 148 66" fill="none" xmlns="http://www.w3.org/2000/svg">
<g clip-path="url(#clip0_13_771)">
<path fill-rule="evenodd" clip-rule="evenodd" d="M44.4989 52.9296C34.1014 52.9296 28.7042 50.637 25.4673 45.2338C23.6456 42.128 23 36.5451 23 32.9636C23 29.382 23.6456 23.8077 25.4673 20.6946C28.7042 15.2913 34.1014 12.9999 44.4989 12.9999C54.8964 12.9999 60.2984 15.2913 63.5292 20.6946C65.3497 23.8077 65.9954 29.382 65.9954 32.9636C65.9954 36.5451 65.3497 42.1219 63.5292 45.2338C60.2984 50.637 54.8952 52.9296 44.4989 52.9296ZM49.7237 44.2495C48.5477 44.2495 46.8437 43.7203 46.0233 41.8404L40.8555 29.3286C39.7377 26.5093 41.9138 23.8671 44.4382 23.8671C45.613 23.8671 47.3158 24.3975 48.1375 26.2763L53.3065 38.7855C54.4231 41.6049 52.2494 44.2483 49.7237 44.2483V44.2495ZM39.3274 44.2495C38.1538 44.2495 36.4498 43.7203 35.627 41.8404L30.458 29.3286C29.3426 26.5093 31.5151 23.8671 34.0407 23.8671C35.2167 23.8671 36.9195 24.3975 37.7424 26.2763L42.9102 38.7855C44.0268 41.6049 41.8543 44.2483 39.3274 44.2483V44.2495ZM56.2132 34.7974C55.0384 34.7974 53.3344 34.2671 52.5127 32.3871L51.2517 29.3299C50.1352 26.5105 52.3064 23.8683 54.8321 23.8683C56.0069 23.8683 57.7109 24.3987 58.5325 26.2775L59.7972 29.3347C60.915 32.1516 58.7389 34.7962 56.2132 34.7962V34.7974Z" fill="#6B6B6B"/>
<path d="M73.8141 25.8357L75.455 19.4725L77.0959 25.8357H79.1858L81.8244 16.2635H79.7029L78.1979 22.259C78.1747 22.382 78.1447 22.5035 78.1081 22.6231V22.6426C78.1081 22.628 78.1008 22.6134 78.0984 22.6001C78.0602 22.4763 78.0298 22.3502 78.0074 22.2226L76.466 16.2587H74.4489L72.9051 22.236C72.8823 22.3639 72.8519 22.4904 72.8141 22.6147C72.8118 22.6253 72.809 22.6358 72.8056 22.6462C72.8041 22.6368 72.8021 22.6275 72.7995 22.6183C72.7616 22.4948 72.7312 22.3692 72.7085 22.2421L71.2072 16.2635H69.0845L71.7242 25.8357H73.8141Z" fill="#6B6B6B"/>
<path d="M82.8171 25.8357L83.748 23.4023H87.1596L88.0905 25.8357H90.2508L86.4132 16.346L86.3804 16.2635H84.5332L80.6628 25.8357H82.8171ZM85.2311 19.5125L85.4532 18.8692L85.5745 19.2188L86.4641 21.5709H84.447L85.2311 19.5125Z" fill="#6B6B6B"/>
<path d="M98.409 19.0282C98.409 17.323 97.0898 16.2635 94.9658 16.2635H90.8576V25.8357H92.8747V22.0588H94.1588L96.313 25.8357H98.619L96.3385 21.8367C97.7124 21.2905 98.409 20.3463 98.409 19.0282ZM96.3907 19.1605C96.3907 19.8887 95.9052 20.2528 94.9658 20.2528H92.8747V18.0682H94.9707C95.9113 18.0682 96.3907 18.436 96.3907 19.1605Z" fill="#6B6B6B"/>
<path d="M101.669 19.5537L101.691 19.5938C101.732 19.6721 101.778 19.7479 101.828 19.8208L105.712 25.7787L105.751 25.8381H107.735V16.2635H105.773V22.509L105.748 22.4666C105.707 22.3882 105.661 22.3124 105.611 22.2396L101.689 16.2635H99.7042V25.8357H101.668L101.669 19.5537Z" fill="#6B6B6B"/>
<path d="M115.595 21.8063V19.9749H111.299V18.0949H115.967V16.2635H109.281V25.8357H116.007V24.0055H111.299V21.8063H115.595Z" fill="#6B6B6B"/>
<path d="M122.716 21.8367C124.09 21.2905 124.78 20.3463 124.78 19.0282C124.78 17.323 123.46 16.2635 121.338 16.2635H117.235V25.8357H119.253V22.0588H120.535L122.691 25.8357H124.997L122.716 21.8367ZM122.764 19.1605C122.764 19.8887 122.284 20.2528 121.339 20.2528H119.253V18.0682H121.344C122.289 18.0682 122.764 18.436 122.764 19.1605Z" fill="#6B6B6B"/>
<path d="M75.7653 35.2598L72.8865 28.0846H70.8184V37.658H72.7833V32.6795L72.9848 33.3082L74.8405 37.658H76.6889L78.5494 33.2973L78.746 32.6795V37.658H80.711V28.0846H78.6429L75.7653 35.2598Z" fill="#6B6B6B"/>
<path d="M82.1519 28.0846V34.0024C82.1519 36.3363 83.7017 37.8437 86.0999 37.8437C88.4982 37.8437 90.048 36.3363 90.048 34.0024V28.0846H88.0309V33.8289C88.0309 35.1821 87.327 35.9589 86.0999 35.9589C84.8729 35.9589 84.169 35.1821 84.169 33.8289V28.0846H82.1519Z" fill="#6B6B6B"/>
<path d="M94.9985 36.0391C93.7436 36.0391 93.036 35.3679 92.7726 33.9249L92.7411 33.7525L90.9521 34.6628L90.974 34.7611C91.3866 36.7199 92.8588 37.8438 95.0118 37.8438C97.3773 37.8438 98.614 36.3401 98.614 34.8533C98.614 33.2428 97.6431 32.3216 95.4645 31.8653C93.9232 31.5485 93.3212 31.1783 93.3212 30.5436C93.3212 29.9088 94.0894 29.7037 94.7473 29.7037C95.7716 29.7037 96.4682 30.228 96.8178 31.2645L96.8688 31.415L98.4902 30.4829L98.4526 30.3797C97.8543 28.7328 96.6224 27.899 94.7922 27.899C92.7568 27.899 91.3939 28.9779 91.3939 30.5836C91.3939 32.0777 92.4947 33.142 94.4111 33.5049C96.0131 33.8314 96.6078 34.2149 96.6078 34.9201C96.5969 35.5997 95.9694 36.0391 94.9985 36.0391Z" fill="#6B6B6B"/>
<path d="M101.737 28.0846H99.7203V37.6568H101.737V28.0846Z" fill="#6B6B6B"/>
<path d="M111.849 35.2854L111.918 35.1798L110.325 34.0353L110.254 34.1664C109.615 35.3558 108.705 35.959 107.55 35.959C105.891 35.959 104.689 34.6603 104.689 32.8714C104.689 31.0824 105.891 29.7838 107.55 29.7838C108.74 29.7838 109.565 30.3433 110.145 31.5448L110.213 31.6856L111.849 30.5072L111.806 30.4101C111.1 28.8323 109.53 27.899 107.604 27.899C104.73 27.899 102.644 29.9901 102.644 32.875C102.644 35.8024 104.656 37.8511 107.537 37.8511C109.717 37.8438 110.769 36.9093 111.849 35.2854Z" fill="#6B6B6B"/>
<path d="M74.1531 45.9401H77.1291C76.9919 46.5931 76.4992 47.7801 74.7321 47.7801C73.1094 47.7801 71.977 46.5106 71.977 44.6925C71.977 42.8744 73.1907 41.5248 74.8656 41.5248C76.0659 41.5248 76.9871 42.0843 77.5284 43.1426L77.5988 43.2786L79.1292 42.1656L79.0782 42.0661C78.3294 40.5976 76.765 39.7201 74.8911 39.7201C72.0644 39.7201 69.932 41.8574 69.932 44.6961C69.932 47.5349 71.9734 49.6722 74.6787 49.6722C75.8644 49.6722 76.8208 49.2255 77.4628 48.3772L77.7869 49.4865H79.1729V44.2422H74.1531V45.9401Z" fill="#6B6B6B"/>
<path d="M88.0524 42.6705C88.0524 40.9653 86.7332 39.9058 84.6093 39.9058H80.4973V49.4792H82.5157V45.701H83.8046L85.9589 49.4792H88.2648L85.9807 45.4741C87.3521 44.9328 88.0524 43.9898 88.0524 42.6705ZM86.0353 42.804C86.0353 43.5322 85.5498 43.8963 84.6093 43.8963H82.5157V41.7117H84.6056C85.5511 41.7105 86.0317 42.0782 86.0317 42.804H86.0353Z" fill="#6B6B6B"/>
<path d="M93.6223 39.7201C90.8175 39.7201 88.7033 41.8574 88.7033 44.6961C88.7033 47.5349 90.8175 49.6722 93.6223 49.6722C96.4271 49.6722 98.5413 47.5349 98.5413 44.6961C98.5413 41.8574 96.4271 39.7201 93.6223 39.7201ZM96.4975 44.6961C96.4975 46.5433 95.3421 47.7837 93.6223 47.7837C91.9025 47.7837 90.7471 46.5433 90.7471 44.6961C90.7471 42.8489 91.9025 41.6086 93.6223 41.6086C95.3421 41.6086 96.4975 42.8453 96.4975 44.6925V44.6961Z" fill="#6B6B6B"/>
<path d="M105.476 45.6476C105.476 47.0021 104.772 47.7776 103.545 47.7776C102.318 47.7776 101.614 47.0021 101.614 45.6476V39.9058H99.597V45.8236C99.597 48.1563 101.146 49.6649 103.545 49.6649C105.945 49.6649 107.493 48.1563 107.493 45.8236V39.9058H105.476V45.6476Z" fill="#6B6B6B"/>
<path d="M113.297 39.9058H108.934V49.4792H110.951V46.2338H113.297C115.528 46.2338 116.913 45.0202 116.913 43.0698C116.913 41.1194 115.526 39.9058 113.297 39.9058ZM114.896 43.0698C114.896 43.9412 114.324 44.4048 113.244 44.4048H110.951V41.7348H113.241C114.322 41.7372 114.893 42.1984 114.893 43.0698H114.896Z" fill="#6B6B6B"/>
</g>
<defs>
<clipPath id="clip0_13_771">
<rect width="102" height="39.9305" fill="white" transform="translate(23 13)"/>
</clipPath>
</defs>
</svg>
