<svg width="148" height="66" viewBox="0 0 148 66" fill="none" xmlns="http://www.w3.org/2000/svg">
<g clip-path="url(#clip0_13_772)">
<path fill-rule="evenodd" clip-rule="evenodd" d="M16.3247 39.7831L20.4595 36.616C22.6552 39.4827 24.987 40.8038 27.5853 40.8038C30.1692 40.8038 32.4369 39.4979 34.5342 36.6539L38.726 39.7452C35.7021 43.8457 31.9399 46.0121 27.5853 46.0121C23.2451 46.0121 19.4481 43.8609 16.3247 39.7831Z" fill="#6E6E70"/>
<path fill-rule="evenodd" clip-rule="evenodd" d="M27.5721 26.0184L20.2128 32.3598L16.8129 28.4142L27.5867 19.1306L38.2768 28.4215L34.8601 32.3526L27.5721 26.0184Z" fill="#6B6B6B"/>
<path d="M66.9507 24.4843H62.784V41.8454H66.9507V24.4843Z" fill="#6B6B6B"/>
<path fill-rule="evenodd" clip-rule="evenodd" d="M54.3632 41.922C51.9069 41.922 49.86 41.126 48.1998 39.534C46.5395 37.9192 45.7208 35.8496 45.7208 33.3251C45.7208 30.7778 46.5623 28.6855 48.2225 27.048C49.9055 25.3877 51.9524 24.569 54.3859 24.569C57.3879 24.569 60.049 25.8653 61.5954 27.8895L58.889 30.7324C57.5925 29.345 56.1826 28.64 54.6588 28.64C53.3625 28.64 52.2936 29.0721 51.4066 29.9591C50.5423 30.8461 50.1102 31.9605 50.1102 33.3023C50.1102 34.5987 50.5423 35.6903 51.4066 36.5773C52.2936 37.4416 53.3625 37.8737 54.6361 37.8737C56.2963 37.8737 57.7518 37.1459 58.9572 35.7131L61.7775 38.4195C61.0043 39.4429 59.9579 40.2844 58.6615 40.944C57.3654 41.6036 55.9324 41.922 54.3632 41.922Z" fill="#6B6B6B"/>
<path fill-rule="evenodd" clip-rule="evenodd" d="M73.2003 25.8731C73.2003 27.1197 72.1902 28.1301 70.9437 28.1301C69.6971 28.1301 68.6866 27.1197 68.6866 25.8731C68.6866 24.6267 69.6971 23.6162 70.9437 23.6162C72.1902 23.6162 73.2003 24.6267 73.2003 25.8731ZM73.0268 29.1718H68.8601V41.8454H73.0268V29.1718Z" fill="#6B6B6B"/>
<path fill-rule="evenodd" clip-rule="evenodd" d="M81.0811 41.9447C79.1026 41.9447 77.5104 41.3306 76.2598 40.1025C75.0315 38.8744 74.4172 37.3051 74.4172 35.3719C74.4172 33.4388 75.0316 31.8695 76.2822 30.6414C77.5333 29.4133 79.1479 28.7992 81.1493 28.7992C83.765 28.7992 86.0618 30.0728 87.1307 32.4608L83.9239 34.1438C83.2872 33.0749 82.4004 32.529 81.2404 32.529C80.399 32.529 79.7165 32.802 79.1708 33.3478C78.6476 33.8936 78.3747 34.5759 78.3747 35.3719C78.3747 37.0322 79.5801 38.2603 81.1951 38.2603C82.3547 38.2603 83.4236 37.6235 83.8786 36.6455L87.0853 38.556C85.9935 40.6483 83.7422 41.9447 81.0811 41.9447Z" fill="#6B6B6B"/>
<path fill-rule="evenodd" clip-rule="evenodd" d="M92.2981 24.4843H88.1315V41.8454H92.2981V37.4257L92.7862 36.9704L96.595 41.8454H101.442L95.5902 34.3556L101.149 29.1717H96.0579L92.2981 32.678V24.4843Z" fill="#6B6B6B"/>
<path fill-rule="evenodd" clip-rule="evenodd" d="M102.194 35.285V24.4843H106.534V35.0431C106.534 36.9308 107.634 37.8405 109.225 37.8405C110.793 37.8405 111.916 36.8853 111.916 35.0431V24.4843H116.256V35.285C116.256 40.2429 112.776 42.1079 109.225 42.1079C105.698 42.1079 102.194 40.2429 102.194 35.285Z" fill="#6B6B6B"/>
<path fill-rule="evenodd" clip-rule="evenodd" d="M125.631 42.1926C128.987 42.1926 131.708 39.239 131.708 35.5954C131.708 31.9518 128.987 28.9982 125.631 28.9982C124.264 28.9982 123.001 29.4889 121.986 30.3171V29.1718H117.993V47.0538H121.986V40.8737C123.001 41.7019 124.264 42.1926 125.631 42.1926ZM121.986 35.6022V35.5886C121.989 33.9617 123.27 32.644 124.85 32.644C126.432 32.644 127.715 33.9654 127.715 35.5954C127.715 37.2254 126.432 38.5468 124.85 38.5468C123.27 38.5468 121.989 37.2291 121.986 35.6022Z" fill="#6B6B6B"/>
</g>
<defs>
<clipPath id="clip0_13_772">
<rect width="116" height="28.1831" fill="white" transform="translate(16 19)"/>
</clipPath>
</defs>
</svg>
