<svg width="148" height="66" viewBox="0 0 148 66" fill="none" xmlns="http://www.w3.org/2000/svg">
<g clip-path="url(#clip0_146_76)">
<path fill-rule="evenodd" clip-rule="evenodd" d="M46.8127 51.3638C37.2307 51.3638 32.2568 49.251 29.2738 44.2715C27.595 41.4094 27 36.2644 27 32.9637C27 29.6631 27.595 24.5259 29.2738 21.657C32.2568 16.6775 37.2307 14.5659 46.8127 14.5659C56.3947 14.5659 61.3731 16.6775 64.3505 21.657C66.0282 24.5259 66.6232 29.6631 66.6232 32.9637C66.6232 36.2644 66.0282 41.4038 64.3505 44.2715C61.3731 49.251 56.3936 51.3638 46.8127 51.3638ZM51.6278 43.3645C50.544 43.3645 48.9736 42.8768 48.2175 41.1443L43.455 29.6139C42.4249 27.0156 44.4304 24.5807 46.7568 24.5807C47.8395 24.5807 49.4087 25.0695 50.1659 26.8009L54.9295 38.3291C55.9585 40.9273 53.9553 43.3633 51.6278 43.3633V43.3645ZM42.0469 43.3645C40.9653 43.3645 39.395 42.8768 38.6366 41.1443L33.873 29.6139C32.8451 27.0156 34.8472 24.5807 37.1748 24.5807C38.2586 24.5807 39.8278 25.0695 40.5861 26.8009L45.3486 38.3291C46.3776 40.9273 44.3755 43.3633 42.0469 43.3633V43.3645ZM57.6083 34.6537C56.5256 34.6537 54.9552 34.165 54.198 32.4324L53.0359 29.615C52.0069 27.0168 54.0079 24.5818 56.3354 24.5818C57.4181 24.5818 58.9885 25.0706 59.7457 26.802L60.9111 29.6195C61.9413 32.2155 59.9358 34.6526 57.6083 34.6526V34.6537Z" fill="#62666D"/>
<path d="M73.8282 26.3948L75.3404 20.5306L76.8526 26.3948H78.7786L81.2102 17.5734H79.2551L77.8682 23.0987C77.8468 23.212 77.8191 23.324 77.7854 23.4342V23.4521C77.7854 23.4387 77.7787 23.4253 77.7765 23.413C77.7412 23.2989 77.7132 23.1827 77.6926 23.0651L76.2721 17.5689H74.4132L72.9905 23.0774C72.9695 23.1953 72.9415 23.3118 72.9066 23.4264C72.9045 23.4362 72.9019 23.4459 72.8988 23.4555C72.8974 23.4468 72.8956 23.4382 72.8932 23.4297C72.8582 23.316 72.8302 23.2002 72.8093 23.083L71.4257 17.5734H69.4695L71.9022 26.3948H73.8282Z" fill="#62666D"/>
<path d="M82.1249 26.3949L82.9827 24.1523H86.1268L86.9847 26.3949H88.9755L85.4389 17.6495L85.4087 17.5734H83.7064L80.1396 26.3949H82.1249ZM84.3495 20.5676L84.5542 19.9748L84.666 20.2969L85.4859 22.4645H83.627L84.3495 20.5676Z" fill="#62666D"/>
<path d="M96.4944 20.1213C96.4944 18.5499 95.2786 17.5734 93.3213 17.5734H89.5352V26.3949H91.3942V22.9142H92.5775L94.5628 26.3949H96.6879L94.5863 22.7095C95.8524 22.2062 96.4944 21.336 96.4944 20.1213ZM94.6344 20.2432C94.6344 20.9143 94.187 21.2499 93.3213 21.2499H91.3942V19.2366H93.3258C94.1926 19.2366 94.6344 19.5755 94.6344 20.2432Z" fill="#62666D"/>
<path d="M99.4998 20.6056L99.5199 20.6425C99.5578 20.7147 99.6 20.7846 99.6463 20.8517L103.225 26.3423L103.261 26.3971H105.09V17.5734H103.281V23.3291L103.259 23.29C103.221 23.2178 103.179 23.1479 103.133 23.0808L99.5177 17.5734H97.689V26.3949H99.4987L99.4998 20.6056Z" fill="#62666D"/>
<path d="M112.332 22.6815V20.9937H108.374V19.2612H112.676V17.5734H106.514V26.3949H112.713V24.7082H108.374V22.6815H112.332Z" fill="#62666D"/>
<path d="M118.896 22.7095C120.162 22.2062 120.798 21.336 120.798 20.1213C120.798 18.5499 119.582 17.5734 117.626 17.5734H113.845V26.3949H115.704V22.9142H116.886L118.873 26.3949H120.998L118.896 22.7095ZM118.94 20.2432C118.94 20.9143 118.498 21.2499 117.627 21.2499H115.704V19.2366H117.631C118.503 19.2366 118.94 19.5755 118.94 20.2432Z" fill="#62666D"/>
<path d="M75.6268 35.0799L72.9738 28.4675H71.0679V37.29H72.8787V32.702L73.0644 33.2814L74.7745 37.29H76.478L78.1926 33.2713L78.3738 32.702V37.29H80.1846V28.4675H78.2787L75.6268 35.0799Z" fill="#62666D"/>
<path d="M81.5129 28.4675V33.9212C81.5129 36.072 82.9412 37.4612 85.1513 37.4612C87.3614 37.4612 88.7897 36.072 88.7897 33.9212V28.4675H86.9308V33.7612C86.9308 35.0083 86.2821 35.7242 85.1513 35.7242C84.0205 35.7242 83.3718 35.0083 83.3718 33.7612V28.4675H81.5129Z" fill="#62666D"/>
<path d="M93.3524 35.798C92.1959 35.798 91.5439 35.1794 91.3012 33.8496L91.2721 33.6908L89.6234 34.5296L89.6436 34.6202C90.0239 36.4254 91.3806 37.4611 93.3648 37.4611C95.5447 37.4611 96.6844 36.0753 96.6844 34.7052C96.6844 33.221 95.7896 32.3721 93.7819 31.9515C92.3615 31.6596 91.8067 31.3185 91.8067 30.7335C91.8067 30.1485 92.5147 29.9595 93.1209 29.9595C94.0649 29.9595 94.7069 30.4427 95.029 31.3979L95.076 31.5366L96.5703 30.6776L96.5356 30.5825C95.9842 29.0647 94.849 28.2963 93.1623 28.2963C91.2866 28.2963 90.0306 29.2907 90.0306 30.7704C90.0306 32.1473 91.045 33.1282 92.8111 33.4626C94.2875 33.7635 94.8356 34.1169 94.8356 34.7667C94.8255 35.3931 94.2472 35.798 93.3524 35.798Z" fill="#62666D"/>
<path d="M99.5623 28.4675H97.7034V37.2889H99.5623V28.4675Z" fill="#62666D"/>
<path d="M108.882 35.1034L108.945 35.0061L107.477 33.9514L107.412 34.0722C106.822 35.1683 105.984 35.7241 104.92 35.7241C103.391 35.7241 102.283 34.5274 102.283 32.8787C102.283 31.2301 103.391 30.0333 104.92 30.0333C106.016 30.0333 106.777 30.5489 107.311 31.6562L107.374 31.786L108.882 30.6999L108.841 30.6105C108.191 29.1564 106.744 28.2963 104.969 28.2963C102.321 28.2963 100.398 30.2235 100.398 32.8821C100.398 35.5799 102.252 37.4679 104.908 37.4679C106.916 37.4611 107.886 36.5999 108.882 35.1034Z" fill="#62666D"/>
<path d="M74.1408 44.9225H76.8833C76.7569 45.5242 76.3028 46.6181 74.6743 46.6181C73.1789 46.6181 72.1353 45.4481 72.1353 43.7727C72.1353 42.0972 73.2538 40.8534 74.7973 40.8534C75.9035 40.8534 76.7524 41.369 77.2513 42.3444L77.3161 42.4696L78.7265 41.444L78.6796 41.3523C77.9895 39.9989 76.5477 39.1902 74.8208 39.1902C72.2159 39.1902 70.2507 41.1599 70.2507 43.776C70.2507 46.3921 72.132 48.3618 74.6251 48.3618C75.7178 48.3618 76.5992 47.9502 77.1909 47.1684L77.4895 48.1906H78.7668V43.3577H74.1408V44.9225Z" fill="#62666D"/>
<path d="M86.9509 41.9092C86.9509 40.3378 85.7351 39.3613 83.7778 39.3613H79.9884V48.1839H81.8484V44.7021H83.0362L85.0215 48.1839H87.1466L85.0417 44.4929C86.3055 43.9941 86.9509 43.125 86.9509 41.9092ZM85.092 42.0323C85.092 42.7033 84.6446 43.0389 83.7778 43.0389H81.8484V41.0256H83.7744C84.6457 41.0245 85.0886 41.3634 85.0886 42.0323H85.092Z" fill="#62666D"/>
<path d="M92.0831 39.1902C89.4983 39.1902 87.5499 41.1599 87.5499 43.776C87.5499 46.3921 89.4983 48.3618 92.0831 48.3618C94.6679 48.3618 96.6163 46.3921 96.6163 43.776C96.6163 41.1599 94.6679 39.1902 92.0831 39.1902ZM94.7328 43.776C94.7328 45.4783 93.668 46.6214 92.0831 46.6214C90.4982 46.6214 89.4334 45.4783 89.4334 43.776C89.4334 42.0737 90.4982 40.9306 92.0831 40.9306C93.668 40.9306 94.7328 42.0703 94.7328 43.7727V43.776Z" fill="#62666D"/>
<path d="M103.008 44.6529C103.008 45.9011 102.359 46.6158 101.228 46.6158C100.098 46.6158 99.4489 45.9011 99.4489 44.6529V39.3613H97.59V44.815C97.59 46.9648 99.0171 48.355 101.228 48.355C103.44 48.355 104.867 46.9648 104.867 44.815V39.3613H103.008V44.6529Z" fill="#62666D"/>
<path d="M110.215 39.3613H106.194V48.1839H108.053V45.1931H110.215C112.27 45.1931 113.547 44.0746 113.547 42.2772C113.547 40.4798 112.268 39.3613 110.215 39.3613ZM111.688 42.2772C111.688 43.0803 111.161 43.5075 110.165 43.5075H108.053V41.0469H110.163C111.159 41.0491 111.685 41.4741 111.685 42.2772H111.688Z" fill="#62666D"/>
</g>
<defs>
<clipPath id="clip0_146_76">
<rect width="94" height="36.7987" fill="white" transform="translate(27 14.5659)"/>
</clipPath>
</defs>
</svg>
