<svg width="65" height="37" viewBox="0 0 65 37" fill="none" xmlns="http://www.w3.org/2000/svg">
<path d="M31.7646 1.8078C29.0224 1.98553 26.1431 2.97069 23.8681 4.50936C21.4662 6.13436 19.5619 8.32811 18.3279 10.8875C17.6525 12.289 17.231 13.6094 16.9416 15.2344C16.7232 16.4531 16.6775 18.2914 16.8299 19.7031C17.033 21.6023 17.7287 23.8773 18.6681 25.7359L18.9373 26.259L18.3127 28.1226C17.9674 29.1484 17.3427 31.0172 16.9213 32.2766C16.4947 33.541 16.1494 34.6074 16.1494 34.6582C16.1494 34.7039 16.2154 34.7699 16.2966 34.8004C16.4287 34.8512 16.4439 34.8715 16.4185 35.0289C16.3881 35.1914 16.3931 35.2016 16.5099 35.166C16.7181 35.1 21.2631 33.6527 23.1826 33.0332C24.1881 32.7133 25.0513 32.4492 25.1021 32.4492C25.1478 32.4492 25.3662 32.5355 25.5845 32.6473C27.4431 33.5816 29.4236 34.1402 31.531 34.3332C32.3638 34.4043 34.0599 34.3687 34.8775 34.2519C39.722 33.5816 43.8455 30.9055 46.3845 26.7973C47.2123 25.4566 47.9994 23.5879 48.4209 21.9629C48.822 20.4039 49.015 18.4691 48.9084 16.9762C48.6342 13.0101 47.1006 9.49608 44.4345 6.73358C41.8498 4.05741 38.5592 2.40194 34.8115 1.8992C34.2631 1.82811 32.3638 1.76717 31.7646 1.8078ZM33.7502 5.28124C35.5631 5.4285 37.0509 5.82967 38.6201 6.59647C40.7478 7.64256 42.5302 9.20663 43.8506 11.1973C44.8662 12.7258 45.4908 14.3711 45.7345 16.1687C45.8513 17.0219 45.8513 18.7484 45.7345 19.6219C44.9068 25.7613 39.8388 30.4941 33.6892 30.8801C31.5209 31.0121 29.5049 30.6566 27.5345 29.7933C26.9912 29.5547 26.0924 29.0672 25.8131 28.8641C25.7267 28.798 25.615 28.7422 25.5642 28.7422C25.5185 28.7422 24.4369 29.0723 23.1674 29.4785C21.8978 29.8848 20.8517 30.2148 20.8466 30.2047C20.8365 30.1945 21.1615 29.2043 21.5627 28.0058C21.9638 26.8023 22.2939 25.7613 22.2939 25.6801C22.2939 25.5988 22.2025 25.4109 22.0705 25.223C19.9478 22.1812 19.2572 17.9816 20.2881 14.4219C20.5166 13.65 20.7045 13.1777 21.0752 12.4414C22.0908 10.4558 23.6396 8.72421 25.5439 7.45467C27.9459 5.84999 30.947 5.0578 33.7502 5.28124Z" fill="white"/>
<path d="M27.0317 9.97343C26.9149 10.009 26.7473 10.0902 26.6508 10.1461C26.3919 10.3086 25.6403 11.1109 25.4067 11.4766C24.6602 12.6394 24.4926 14.1883 24.9395 15.7016C25.2798 16.8441 25.6962 17.7176 26.4579 18.8957C27.4227 20.3785 28.0473 21.1809 29.0477 22.2117C30.5508 23.7605 31.8153 24.6289 33.7551 25.4363C35.1872 26.0355 36.2434 26.3758 36.8376 26.4367C37.2489 26.4773 38.1477 26.3352 38.6758 26.1422C39.4071 25.8781 40.245 25.2891 40.57 24.8117C40.895 24.3242 41.2301 23.2223 41.2708 22.491L41.3012 22.0086L41.1438 21.8258C41.0321 21.7039 40.5751 21.4297 39.6508 20.932C37.4571 19.7539 37.1778 19.6422 36.8325 19.825C36.7462 19.8656 36.4212 20.1957 36.1165 20.5512C35.2126 21.6023 35.0247 21.7852 34.8723 21.7852C34.6794 21.7852 33.4149 21.1402 32.8258 20.7441C32.1403 20.277 31.6934 19.9012 31.1298 19.3172C30.4594 18.6215 29.7333 17.6262 29.327 16.8492L29.2356 16.6664L29.6012 16.2652C30.0837 15.7523 30.2817 15.4426 30.4747 14.9043C30.6727 14.3559 30.6626 14.1883 30.3731 13.4316C30.1141 12.7562 29.9059 12.1977 29.5454 11.2277C29.2508 10.4305 29.0325 10.1055 28.7278 10.009C28.4383 9.92265 27.2704 9.89726 27.0317 9.97343Z" fill="white"/>
</svg>
