<svg width="94" height="19.7869" viewBox="16 11 94 19.7869" fill="none" xmlns="http://www.w3.org/2000/svg">
<g clip-path="url(#clip0_wordmark)">
<path d="M16 16.602L16 22.2251L24.7457 19.929C25.8356 19.6429 26.8249 20.6471 26.5226 21.7325L24.0838 30.4882H29.6603L30.8159 24.8158C30.9124 24.3424 30.7683 23.8518 30.4311 23.5058L22.9843 15.863C22.6377 15.5072 22.134 15.3522 21.6473 15.4513L16 16.602Z" fill="#EB3514"/>
<path d="M35.5698 30.4879V27.688L42.7252 18.182H36.1575V15.313H47.046V18.1474L39.9599 27.6188H47.7374V30.4879H35.5698Z" fill="#EB3514"/>
<path d="M55.5323 30.7644C53.251 30.7644 51.4996 30.0961 50.2781 28.7595C49.0568 27.3999 48.4462 25.4296 48.4462 22.8486C48.4462 20.3367 49.0682 18.4125 50.3126 17.0759C51.5572 15.7162 53.32 15.0364 55.6016 15.0364C57.7677 15.0364 59.427 15.7623 60.5792 17.2142C61.7314 18.666 62.3075 20.7746 62.3075 23.5399V23.6782H52.5942C52.5942 25.1531 52.8591 26.2707 53.3893 27.0312C53.9423 27.7686 54.7257 28.1373 55.7396 28.1373C57.1225 28.1373 57.9981 27.5382 58.3669 26.3399L62.1001 26.651C61.017 29.3933 58.8278 30.7644 55.5323 30.7644ZM55.5323 17.5253C54.6105 17.5253 53.8961 17.8479 53.3893 18.4931C52.9053 19.1384 52.6518 20.0371 52.6287 21.1894H58.5052C58.4359 19.968 58.1364 19.0577 57.6063 18.4586C57.0994 17.8364 56.4081 17.5253 55.5323 17.5253Z" fill="#EB3514"/>
<path d="M63.8528 30.4879V18.8734C63.8528 18.0437 63.8411 17.3524 63.818 16.7993C63.7951 16.2463 63.7721 15.7508 63.749 15.313H67.4822C67.5053 15.4743 67.5398 15.9928 67.586 16.8685C67.6551 17.7211 67.6896 18.2857 67.6896 18.5623H67.7241C68.1159 17.5022 68.4616 16.7532 68.7611 16.3154C69.0608 15.8775 69.4065 15.5549 69.7983 15.3475C70.213 15.1401 70.7315 15.0364 71.3538 15.0364C71.8606 15.0364 72.2639 15.1056 72.5636 15.2438V18.5277C71.9182 18.3894 71.3652 18.3203 70.9043 18.3203C69.9135 18.3203 69.1415 18.7236 68.5882 19.5302C68.0583 20.3137 67.7934 21.4889 67.7934 23.056V30.4879H63.8528Z" fill="#EB3514"/>
<path d="M83.3863 30.4879V21.9844C83.3863 19.3112 82.4877 17.9746 80.6901 17.9746C79.7455 17.9746 78.9734 18.3894 78.3742 19.219C77.7981 20.0256 77.5101 21.0741 77.5101 22.3646V30.4879H73.5695V18.7351C73.5695 17.9285 73.5578 17.2602 73.5347 16.7302C73.5118 16.2002 73.4888 15.7278 73.4657 15.313H77.1989C77.222 15.4973 77.2565 15.9812 77.3027 16.7648C77.3718 17.5253 77.4063 18.0553 77.4063 18.3549H77.4408C77.971 17.2026 78.6392 16.3615 79.4457 15.8315C80.2523 15.3014 81.2086 15.0364 82.3148 15.0364C83.9279 15.0364 85.1609 15.5319 86.0136 16.5228C86.8892 17.5137 87.327 18.9655 87.327 20.8783V30.4879H83.3863Z" fill="#EB3514"/>
<path d="M89.6182 14.7288V12.3449L93.5588 11V13.384L89.6182 14.7288ZM89.6182 30.4879V16.2095L93.5588 14.8647V30.4879H89.6182Z" fill="#EB3514"/>
<path d="M109.981 22.8832C109.981 25.3489 109.29 27.2847 107.908 28.6904C106.548 30.0731 104.67 30.7644 102.273 30.7644C99.8994 30.7644 98.0328 30.0731 96.6732 28.6904C95.3365 27.2847 94.6683 25.3489 94.6683 22.8832C94.6683 20.4404 95.3365 18.5277 96.6732 17.145C98.0328 15.7393 99.9225 15.0364 102.342 15.0364C104.808 15.0364 106.698 15.7162 108.011 17.0759C109.325 18.4125 109.981 20.3482 109.981 22.8832ZM105.834 22.8832C105.834 21.0857 105.534 19.7836 104.935 18.9771C104.359 18.1705 103.517 17.7672 102.411 17.7672C100.015 17.7672 98.8162 19.4725 98.8162 22.8832C98.8162 24.5654 99.1043 25.8559 99.6804 26.7547C100.28 27.6304 101.121 28.0682 102.204 28.0682C104.623 28.0682 105.834 26.3399 105.834 22.8832Z" fill="#EB3514"/>
</g>
<defs>
<clipPath id="clip0_wordmark">
<rect width="94" height="19.7869" fill="white" transform="translate(16 11)"/>
</clipPath>
</defs>
</svg>
